<?xml version="1.0" encoding="UTF-8"?>
<svg id="alivepro-logo__svg" width="440" height="136" version="1.1" viewBox="0 0 116.42 35.983" xml:space="preserve" xmlns="http://www.w3.org/2000/svg">
	<style>
		@import url('../root.css');

		:root {
			--logo-background-color: #444488;
			--logo-fill-color: #f8f8f8;
		}

		#alivepro-logo__svg {
			background-color: var(--primary-color);
			fill: var(--secondary-color);
			transition:
				background-color 0.5s,
				fill 0.5s
			;
		}

		#alivepro-logo__svg:hover {
			background-color: var(--logo-background-color);
			fill: var(--logo-fill-color);
		}
	</style>
	<path id="alivepro-logo__path" d="m68.299 11.054c-3.5579 0.13702-7.4491 2.4357-8.2015 6.9338-0.02147 0.12777-0.02747 0.25766-0.01786 0.38686 0.16888 2.2075 1.264 4.4847 3.5651 5.7018 2.3011 1.217 7.1791 1.4933 10.955 0.3129l0.0088-3.0759c-4.1244 1.2261-8.1445 1.2773-9.5819 0.11081-0.67396-0.54692-1.0566-1.1392-1.334-1.767l10.844-1.1784c0.85702-0.0921 1.4901-0.84185 1.4373-1.7022-0.12046-1.9294-1.2401-3.5189-2.6872-4.4549-1.4471-0.93598-3.2086-1.3362-4.9875-1.2677zm0.12498 3.2229c1.1906-0.04585 2.342 0.2563 3.1098 0.75289 0.19622 0.1269 0.1642 0.35622 0.31247 0.49697l-7.6509 0.83027c0.98741-1.3671 2.5641-2.016 4.2287-2.0801zm-10.172-3.0296c-1.9702 3.2066-3.6501 6.297-5.1846 8.8183-1.6112-2.5807-3.2019-5.8657-4.869-8.8591l-3.9694-0.0055c2.0761 3.7275 5.3391 10.192 7.6673 13.068 0.64838 0.91025 1.4321 0.80159 2.1641-0.04289 2.4061-2.7759 5.5783-9.101 7.8644-12.969zm-16.876-4.5886v3.1395h3.2258v-3.1395zm0.04166 4.4876-0.08333 13.912 3.2258 0.02083 0.08333-13.915zm-11.451-5.6333v13.912a1.6127 1.6127 0 0 0 0 0.0744s0.02976 0.69929 0.15474 1.5088c0.0625 0.40474 0.14599 0.84455 0.28568 1.2915 0.13969 0.44697 0.28221 0.91606 0.79456 1.4284 0.5918 0.5918 1.2119 0.87899 1.7111 1.0981 0.4992 0.2191 0.91954 0.3452 0.91954 0.3452a1.6127 1.6127 0 0 0 0.46126 0.06844h6.1065v-3.2258h-5.8178c-0.0897-0.02983-0.15792-0.04591-0.37198-0.13987-0.3135-0.1376-0.66913-0.36857-0.72909-0.42852 0.18647 0.18647 0.07054 0.09657 0.0059-0.11011-0.06459-0.20667-0.13163-0.51451-0.17855-0.81836-0.09384-0.6077-0.11904-1.1636-0.11904-1.1636v-13.841zm-22.603 21.415h3.9393l-2.0723 2.9358h-3.9393zm19.032-21.513c-0.87805-0.2743-1.6303-0.04099-2.1992 0.21724-0.56889 0.25823-1.0309 0.59229-1.4344 0.91954-0.807 0.6545-1.3957 1.3391-1.3957 1.3391-0.02705 0.0327-0.05284 0.06645-0.07737 0.10118l-10.523 14.251-2.3002 3.2138h3.9399l0.95525-1.2973 3.4341-4.6513 0.49697 0.34818 6.8088 4.7525c0.01857 0.01326 0.03742 0.02619 0.05654 0.03869 0 0 0.41345 0.27181 0.9612 0.49102 0.27388 0.10961 0.58578 0.2242 1.0416 0.25592 0.45577 0.03172 1.2648-0.08665 1.7885-0.74397 0.69668-0.87451 0.58418-1.4084 0.6279-1.8986 0.04185-0.46929 0.03354-0.8329 0.03273-0.86598l5e-6 -0.03869-0.01188-12.094c-4.84e-4 -0.53619 0.01188-1.2608-0.19938-2.0712-0.21124-0.8104-0.84006-1.9044-2.0028-2.2676zm-1.1011 3.3121c0.04269 0.27488 0.077 0.62024 0.07737 1.0296l0.01188 11.814-6.2463-4.3567-0.42852-0.29759 5.1125-6.9278c0.01601-0.01816 0.4398-0.49891 0.97311-0.93144 0.18449-0.14964 0.3404-0.23438 0.49994-0.33032zm79.717 16.382c2.988 0 4.6054-1.6174 5.181-4.7973l0.79497-4.4683c0.0822-0.54826 0.13707-1.0691 0.13707-1.5351 0-2.2479-1.2062-3.2621-3.92-3.2621h-2.2753c-3.2347 0-4.8247 1.3981-5.4278 4.7973l-0.79498 4.4683c-0.10965 0.57567-0.16447 1.0691-0.16447 1.5351 0 2.2479 1.2062 3.2621 3.92 3.2621zm1.8915-4.6328c-0.16448 0.87721-0.6305 1.3158-1.4529 1.3158h-2.5768c-0.68533 0-0.95946-0.32895-0.95946-0.93204 0-0.13707 0.0274-0.30154 0.0548-0.49343l0.79498-4.6602c0.16448-0.90463 0.6305-1.3158 1.4255-1.3158h2.5768c0.68532 0 1.0143 0.32896 1.0143 0.95945 0 0.13707-0.0274 0.30154-0.0548 0.46602zm-14.49 4.6328 1.6174-9.2382c0.16447-1.0143 0.65791-1.4803 1.5625-1.4803h3.7282l0.57567-3.3444h-2.193c-1.5351 0-2.3301 0.32896-3.1799 1.5351l0.24672-1.5351h-3.1251l-2.4672 14.063zm-13.202 4.3861 0.76756-4.3861h3.3718c2.9606 0 4.715-1.5625 5.2633-4.6602l0.76757-4.3587c0.10965-0.60308 0.16447-1.1239 0.16447-1.6174 0-2.3027-1.1788-3.4266-3.7282-3.4266h-6.6065l-3.2347 18.449zm6.1953-9.1559c-0.16447 0.95945-0.71273 1.4529-1.59 1.4529h-3.2621l1.3158-7.3741h3.2621c0.79497 0 1.0417 0.38378 1.0417 1.0965 0 0.32896-0.0548 0.74015-0.13706 1.2062z" stroke-linejoin="round"/>
</svg>
