<?xml version="1.0" encoding="UTF-8"?>
<svg id="alura-logo__svg" width="128" height="128" version="1.1" viewBox="0 0 33.867 33.867" xml:space="preserve" xmlns="http://www.w3.org/2000/svg">
	<style>
		@import url('../root.css');

		:root {
			--logo-background-color: #051d3b;
			--logo-fill-color: #f8f8f8;
		}

		#alura-logo__svg {
			background-color: var(--primary-color);
			fill: var(--secondary-color);
			transition:
				background-color 0.5s,
				fill 0.5s
			;
		}

		#alura-logo__svg:hover {
			background-color: var(--logo-background-color);
			fill: var(--logo-fill-color);
		}
	</style>
	<path d="m8.3655 16.805a0.32967 0.32967 0 0 1-0.16347 0.23613c-0.087189 0.05631-0.16347 0.08446-0.24067 0.11262-0.16438 0.05675-0.33739 0.11352-0.52039 0.17937-0.19299 0.06584-0.366 0.13169-0.52039 0.17937-0.19254 0.06584-0.37553 0.1226-0.54945 0.18845a1.6211 1.6211 0 0 0-0.36554 0.21706 1.5539 1.5539 0 0 0-0.26973 0.32059c-0.077199 0.13169-0.12579 0.30151-0.12579 0.4995 0 0.39642 0.096265 0.69794 0.28926 0.88637 0.19254 0.19844 0.54945 0.29244 1.0784 0.29244 0.53946 0 0.9055-0.10353 1.0989-0.31105 0.19208-0.20752 0.28835-0.4995 0.28835-0.8764v-1.9245zm-1.3872-4.1777c0.9445 0 1.6379 0.17937 2.0806 0.54718 0.44319 0.35873 0.66479 0.82007 0.66479 1.3668v4.659c0 0.18845-0.038146 0.39596-0.10535 0.62211-0.068109 0.22704-0.20253 0.43411-0.41459 0.62211-0.20207 0.18936-0.48134 0.34965-0.83777 0.47226-0.35646 0.1226-0.81872 0.18845-1.3872 0.18845-0.56761 0-1.0308-0.06584-1.3868-0.18845-0.35601-0.1226-0.63573-0.2829-0.83777-0.47226a1.5103 1.5103 0 0 1-0.41413-0.62211c-0.06811-0.22568-0.1067-0.4332-0.1067-0.62165v-0.74471c0-0.39642 0.1058-0.76427 0.31786-1.0853 0.21206-0.32967 0.5104-0.55581 0.89589-0.69749 0.19254-0.06584 0.41413-0.13169 0.66433-0.2166 0.25066-0.08538 0.48134-0.17028 0.71293-0.24521 0.23159-0.07584 0.43366-0.15167 0.60667-0.21796a4.2049 4.2049 0 0 1 0.31786-0.11262l0.17346-0.08491c0.068116-0.03769 0.13487-0.09446 0.20253-0.16983 0.067209-0.07493 0.12488-0.15984 0.17346-0.25429a0.72655 0.72655 0 0 0 0.077192-0.32967v-0.30197a0.76742 0.76742 0 0 0-0.068117-0.32104c-0.038146-0.11352-0.11534-0.21705-0.22114-0.31105-0.1058-0.09445-0.25066-0.16983-0.42367-0.22704-0.17346-0.05585-0.40414-0.08446-0.66479-0.08446-0.53946 0-0.89589 0.10444-1.0884 0.32059-0.16347 0.1889-0.25974 0.42458-0.27881 0.6884 0 0.05675-0.048133 0.09446-0.10625 0.09446l-1.1748 0.01907a0.1058 0.1058 0 0 1-0.10626-0.10444v-0.27245c0-0.26473 0.048581-0.50994 0.15439-0.74562 0.10626-0.23614 0.27019-0.43367 0.49133-0.60395 0.2216-0.16938 0.51085-0.3106 0.85734-0.40505 0.33739-0.11352 0.75152-0.16029 1.2329-0.16029zm21.297 4.1777a0.32967 0.32967 0 0 1-0.16347 0.23613c-0.08628 0.05631-0.16347 0.08446-0.24066 0.11262-0.16347 0.05675-0.33739 0.11352-0.52039 0.17937-0.19299 0.06584-0.36645 0.13169-0.52039 0.17937-0.19299 0.06584-0.37599 0.1226-0.54945 0.18845a1.6211 1.6211 0 0 0-0.366 0.21706 1.5539 1.5539 0 0 0-0.26928 0.32059c-0.07719 0.13169-0.12533 0.30151-0.12533 0.4995 0 0.39642 0.09536 0.69794 0.28835 0.88637 0.19254 0.19844 0.54945 0.29244 1.0789 0.29244 0.54037 0 0.90594-0.10353 1.0989-0.31105 0.19208-0.20752 0.28835-0.4995 0.28835-0.8764v-1.9245zm-1.3868-4.1777c0.9445 0 1.6379 0.17937 2.0811 0.54718 0.44274 0.35873 0.66434 0.82007 0.66434 1.3668v4.659c0 0.18845-0.03815 0.39596-0.1058 0.62211-0.06722 0.22704-0.20207 0.43411-0.41413 0.62211-0.20207 0.18936-0.48134 0.34965-0.83777 0.47226-0.35601 0.1226-0.81872 0.18845-1.3868 0.18845-0.56761 0-1.0308-0.06584-1.3868-0.18845-0.35601-0.1226-0.63574-0.2829-0.83777-0.47226a1.5099 1.5099 0 0 1-0.41322-0.62211c-0.06811-0.22614-0.1067-0.43366-0.1067-0.62211v-0.74471c0-0.39642 0.10626-0.76427 0.31786-1.0853 0.21206-0.32967 0.51085-0.55581 0.8959-0.69748 0.19254-0.06584 0.41413-0.13169 0.66479-0.2166 0.24975-0.08537 0.48134-0.17028 0.71292-0.24521 0.23159-0.07583 0.4332-0.15167 0.60667-0.21796a4.2049 4.2049 0 0 1 0.31786-0.11262l0.17346-0.08491c0.0672-0.03769 0.13487-0.09446 0.20207-0.16983a1.1534 1.1534 0 0 0 0.17346-0.25429 0.72655 0.72655 0 0 0 0.0772-0.32967v-0.30198a0.76742 0.76742 0 0 0-0.06811-0.32104c-0.03815-0.11352-0.11488-0.21705-0.22114-0.31105-0.1058-0.09446-0.24975-0.16983-0.42367-0.22704-0.17346-0.05586-0.40414-0.08446-0.66479-0.08446-0.53946 0-0.89544 0.10444-1.0884 0.32059-0.16347 0.1889-0.25974 0.42458-0.27927 0.6884 0 0.05675-0.04769 0.09446-0.10535 0.09446h-1.1684a0.1058 0.1058 0 0 1-0.10535-0.10353v-0.27382c0-0.26338 0.04813-0.50859 0.15439-0.74471 0.1058-0.23522 0.26928-0.43366 0.49042-0.60304 0.22251-0.16983 0.51085-0.3115 0.85824-0.4055 0.32695-0.09536 0.74108-0.14213 1.2229-0.14213zm-4.1322 0.03769h0.77102c0.0672 0 0.11533 0.0663 0.09626 0.13169l-0.26019 0.98087c-0.0091 0.04769-0.05767 0.07584-0.09626 0.07584h-0.53946c-0.2888 0-0.51993 0.03769-0.70294 0.11352-0.17391 0.07493-0.31786 0.15984-0.41459 0.26338-0.09626 0.10444-0.15439 0.20752-0.183 0.31151a1.2442 1.2442 0 0 0-0.0386 0.31105v6.064a0.1058 0.1058 0 0 1-0.10671 0.10353h-1.1553a0.1058 0.1058 0 0 1-0.1058-0.10353v-6.3378c0-0.11262 0.01907-0.28244 0.0672-0.4995 0.0386-0.2166 0.15439-0.42412 0.33739-0.64118 0.183-0.20752 0.45273-0.39597 0.81872-0.54672 0.36645-0.15167 0.86732-0.22704 1.5121-0.22704zm-3.8915 6.3278v0.2829c0 0.1226-0.01816 0.29244-0.06675 0.50949-0.0386 0.20706-0.15439 0.42412-0.33739 0.63119-0.183 0.20797-0.45273 0.39642-0.81872 0.54718-0.366 0.15121-0.86732 0.22704-1.5121 0.22704-0.64481 0-1.1461-0.07584-1.5121-0.22704-0.366-0.15076-0.63573-0.32967-0.81872-0.54672-0.183-0.20706-0.29879-0.42412-0.33739-0.64027-0.03815-0.21796-0.06675-0.37781-0.06675-0.50041v-6.3469c0-0.05675 0.04813-0.10444 0.1058-0.10444h1.1461c0.05813 0 0.10626 0.04769 0.10626 0.10444v5.9409c0 0.19798 0.02861 0.33966 0.05767 0.45273 0.02951 0.11352 0.08719 0.22614 0.17391 0.32059 0.08628 0.10353 0.2216 0.18845 0.40414 0.25429 0.17346 0.06629 0.41459 0.10444 0.71292 0.10444 0.30878 0 0.55854-0.03815 0.74199-0.10444 0.183-0.06584 0.31786-0.15076 0.41413-0.24521 0.09536-0.09399 0.16347-0.19753 0.19208-0.31106 0.02906-0.11352 0.06811-0.20706 0.06811-0.48134v-5.94c0-0.05631 0.04769-0.10353 0.10535-0.10353h1.1461c0.05722 0 0.10535 0.04722 0.10535 0.10444v6.0726h-0.0091zm-7.8879-9.3542h1.1466c0.05767 0 0.1058 0.046771 0.1058 0.10308v11.231a0.1058 0.1058 0 0 1-0.1058 0.10444h-1.1466a0.1058 0.1058 0 0 1-0.1058-0.10444v-11.231c0.0091-0.056311 0.04813-0.10353 0.1058-0.10353z" stroke-width=".001"/>
</svg>
