<?xml version="1.0" encoding="UTF-8"?>
<svg id="pucpr-logo__svg" width="128" height="128" version="1.1" viewBox="0 0 33.867 33.867" xml:space="preserve" xmlns="http://www.w3.org/2000/svg">
	<path d="m16.397 4.2334v0.78916h-0.54236v-1.357e-4h-0.2469l-4.1e-4 1.0244h0.15252v1.357e-4l0.63716 1.365e-4v0.557c-1.8311 1.3082-3.1469 3.3354-3.515 5.5609l-0.12488-0.07209 0.15266-0.26414-2.1155-1.2212c-0.15433-0.08922-0.36548-0.06194-0.5005 0.06278l-1.4096-0.81361c-0.24362-0.14079-0.55798-0.056363-0.69871 0.18713l1.365e-4 1.36e-4c-0.14066 0.2435-0.056363 0.5579 0.18713 0.69857l0.91074 0.52567-0.55125 0.95439 2.64e-4 -1.37e-4 0.24649 0.1424 0.23528 0.13569-0.13856 0.2402-0.48177-0.27809-2.647e-4 1.36e-4 -0.71513 1.238-4.237e-4 0.0013 0.48094 0.27768-0.59448 1.0274 0.53935 0.31174 0.29491-0.51008 0.11066 0.06429-0.29505 0.50953 0.53785 0.30996 0.29341-0.51022 0.10929 0.06333-0.29436 0.5094 0.53785 0.31065 0.29436-0.50953 0.11012 0.06361-0.29313 0.50995 0.53758 0.3105 0.59325-1.0281 0.47985 0.27713 4.23e-4 -9.75e-4v2.65e-4l0.48327-0.83716v2.6143l-1.4032 0.81046c0.03842-0.3285-0.02415-0.67151-0.20149-0.97861-0.43833-0.75946-1.4146-1.0211-2.1738-0.58271-0.70736 0.40839-0.98266 1.2841-0.66233 2.0159-0.72185 0.45096-0.96339 1.4019-0.53456 2.1447 0.42744 0.74059 1.3676 1.0075 2.1182 0.61321 0.45731 0.70196 1.3945 0.93309 2.129 0.50926 0.40464-0.23364 0.66787-0.62042 0.75901-1.0456 0.27666 2.5631 2.457 4.57 5.0917 4.57 2.6514 0 4.8422-2.0326 5.0963-4.619 0.081 0.44435 0.34889 0.85201 0.76898 1.0946 0.73443 0.42382 1.6716 0.19271 2.129-0.50926 0.75053 0.39427 1.6906 0.12737 2.118-0.61321 0.4288-0.74279 0.18743-1.6937-0.53443-2.1447 0.32034-0.73184 0.04503-1.6076-0.66233-2.0159-0.75923-0.43846-1.7355-0.17672-2.1738 0.58271-0.17734 0.30706-0.24005 0.65008-0.20162 0.97861l-1.4185-0.81908v-2.6322l0.49873 0.86371 2.65e-4 6.88e-4 0.47999-0.27713 0.59311 1.0281 0.53758-0.3105-0.29313-0.50995 0.11012-0.06361 0.29436 0.50953 0.53798-0.31065-0.29451-0.5094 0.10929-0.06333 0.29341 0.51022 0.53798-0.30996-0.29519-0.50953 0.1108-0.06429 0.29478 0.51008 0.53935-0.31174-0.59448-1.0274 0.48094-0.27768-4.23e-4 -0.0013-0.71513-1.238-1.36e-4 -1.37e-4 -0.4819 0.27809-0.13856-0.2402 0.23528-0.13569 0.24649-0.1424 2.64e-4 1.38e-4 -0.55126-0.95439 0.91088-0.52567c0.2435-0.14068 0.32779-0.45508 0.18713-0.69858v-1.37e-4c-0.14073-0.24349-0.45508-0.32791-0.69871-0.18713l-1.4096 0.81361c-0.135-0.12473-0.34614-0.15201-0.50047-0.06278l-2.1155 1.2212 0.15279 0.26414-0.16059 0.0926c-0.36349-2.234-1.682-4.2697-3.519-5.5819l-1.36e-4 -0.55659 0.63729-1.365e-4v-1.357e-4h0.15238l-2.65e-4 -1.0244h-0.24704v1.357e-4h-0.54237v-0.54223h1.37e-4v-0.2469zm0.24717 0.2469h0.53949l-1.37e-4 0.78938h2.65e-4v1.357e-4h0.24718v-1.357e-4h0.54236v0.53019l-0.78968 2.648e-4v0.77326h-0.53949v-0.77326l-0.78968-2.648e-4 1.36e-4 -0.53019h0.54223v1.365e-4h0.24731v-1.365e-4h1.37e-4zm-0.11381 2.3402h0.76748c0.4612 0.33854 0.89026 0.72011 1.2784 1.1386-0.49347 0.42705-1.244 0.36199-1.661-0.16018-0.4174 0.52255-1.169 0.58738-1.6624 0.15922 0.38799-0.41811 0.81661-0.79943 1.2775-1.1377zm-1.4459 1.3247c0.52639 0.47287 1.3095 0.46642 1.8311 0.011625 0.52114 0.45446 1.3029 0.46117 1.8293-0.01053 0.13256 0.15129 0.26003 0.30702 0.38177 0.46699h-4.4248c0.12207-0.16036 0.24984-0.31647 0.38273-0.46809zm4.2191 0.7091c0.1785 0.2523 0.34339 0.5141 0.49326 0.78458-0.90781 0.49094-1.9783 0.44697-2.881-0.099309-0.90346 0.54672-1.9752 0.59044-2.8835 0.098079 0.14649-0.26442 0.30745-0.52052 0.48136-0.76748h4.7899zm-2.3877 0.96519c0.94456 0.53927 2.0612 0.56312 2.9971 0.03693 0.09785 0.18977 0.18823 0.38365 0.27098 0.58107h-6.5396c0.08293-0.19782 0.17357-0.39221 0.27166-0.58244 0.93639 0.52762 2.0544 0.50416 2.9997-0.035565zm-8.2358 0.22898c0.034065 0.0041 0.067733 0.01508 0.099174 0.03324l1.3753 0.79388-0.26482 0.45742-1.3745-0.79381c-0.12569-0.07247-0.16909-0.23484-0.096849-0.36071 0.054518-0.09437 0.15961-0.14253 0.26181-0.13008zm16.508 0c0.1022-0.01244 0.20729 0.03571 0.26181 0.13008 0.07226 0.12586 0.0287 0.28824-0.09698 0.36071l-1.3745 0.79381-0.26482-0.45742 1.3753-0.79388c0.03144-0.01816 0.06524-0.02909 0.09931-0.03324zm-11.646 0.64605h6.745c0.06531 0.17228 0.12457 0.34711 0.17783 0.52458-0.51991 0.27304-1.1387 0.44018-1.7372 0.44018-0.61359 0-1.2702-0.1646-1.8087-0.46084l-2.65e-4 -9.75e-4c-2.92e-4 9.3e-5 -6.35e-4 3.17e-4 -8.25e-4 4.23e-4 -2.92e-4 -9.3e-5 -3.97e-4 -3.17e-4 -6.88e-4 -4.23e-4l-2.65e-4 9.75e-4c-0.53849 0.29623-1.1953 0.46084-1.8089 0.46084-0.60076 0-1.2219-0.16826-1.7429-0.44305 0.053-0.17643 0.11202-0.35034 0.177-0.52171zm-2.94 0.1004c0.0227 0.0044 0.04627 0.01366 0.07031 0.0275l1.8985 1.0961-2.4149 4.1826-0.11025-0.06361 0.29409-0.50954-0.53772-0.3105-0.29409 0.50953-0.10957-0.063061 0.29519-0.50912-0.53771-0.31065-0.29341 0.51022-0.11121-0.064291 0.29436-0.5098-0.53935-0.31119-0.29341 0.5094-0.10929-0.062784 2.3259-4.0288c0.04379-0.07586 0.10439-0.10528 0.17249-0.09192zm12.664 0c0.0681-0.01336 0.12857 0.01607 0.17235 0.09192l2.3261 4.0288-0.10943 0.06278-0.29341-0.5094-0.53922 0.31119 0.29423 0.5098-0.11121 0.06429-0.29341-0.51022-0.53758 0.31065 0.29505 0.50912-0.10943 0.06306-0.29423-0.50953-0.53758 0.3105 0.29396 0.50953-0.11025 0.06361-2.4149-4.1826 1.8986-1.0961c0.02404-0.01383 0.04761-0.02304 0.0703-0.0275zm-13.736 0.61582 0.23596 0.1361-0.40886 0.70747-0.23555-0.13597zm14.808 0 0.40845 0.7076-0.23555 0.13597-0.409-0.70747zm-11.046 0.06401c0.54277 0.27408 1.1897 0.44182 1.8152 0.44182 0.61138 0 1.2637-0.1504 1.8104-0.42226 0.54673 0.27187 1.1991 0.42226 1.8105 0.42226 0.62331 0 1.2679-0.16669 1.8094-0.43909 0.06409 0.24369 0.11659 0.49165 0.15676 0.7433h-7.5593c0.04031-0.25263 0.0929-0.50144 0.15731-0.74604zm-0.65836 0.83221 3.711 2.1426h-1.0575l-2.9179-1.685zm8.6004 0 0.26454 0.45769-2.9181 1.685h-1.0575zm-7.8106 0.17071h1.3798c-0.02534 0.25619-0.09884 0.47899-0.20997 0.67532zm1.6282 0h1.7461c-0.04588 0.58541-0.2362 1.139-0.52978 1.6421l-1.4605-0.84316c0.13296-0.23215 0.21876-0.49413 0.24416-0.79898zm2.0183 0h1.7462c0.0254 0.30492 0.11106 0.56702 0.24403 0.79928l-1.4603 0.84301c-0.29358-0.50318-0.48403-1.0568-0.52991-1.6423zm1.9946 0h1.3799l-1.1702 0.67559c-0.11119-0.19639-0.18443-0.4194-0.2097-0.67559zm-10.367 0.37412 0.23514 0.13569-0.43156 0.74563-0.23432-0.13542zm16.472 0 0.43074 0.7459-0.23432 0.13542-0.43156-0.74563zm-12.924 0.1268 0.23336 0.13487-0.40858 0.70746-0.23322-0.13473zm9.3759 0 0.40858 0.7076-0.23322 0.13473-0.40858-0.70746zm-4.6879 0.20641c0.09291 0.37489 0.23709 0.7309 0.43362 1.0688l-0.33896 0.19574h-0.18972l-0.33896-0.19574c0.19652-0.33796 0.34111-0.69396 0.43403-1.0688zm-4.2082 0.07072 2.0684 1.1939h-1.3172c-0.34917-0.249-0.6642-0.54256-0.93669-0.87241zm8.4166 0 0.1688 0.29232c-0.27797 0.34173-0.60118 0.6453-0.96054 0.90158h-1.2767zm0.29997 0.51952 0.25087 0.43471 3.97e-4 -1.37e-4 0.4793-0.27699 0.13884 0.24033-0.4789 0.27644h-1.0758c0.2488-0.203 0.47836-0.42886 0.68531-0.67436zm-9.0324 0.02818c0.2006 0.23455 0.42188 0.45102 0.6611 0.64618h-1.0353l-0.4789-0.27645 0.13871-0.24033 0.4793 0.27699 4.23e-4 1.38e-4zm-0.99571 0.61622 0.23322 0.1346-0.43088 0.74604-0.23295-0.13446zm11.04 0 0.43047 0.74618-0.23281 0.13446-0.43088-0.74604zm-10.403 0.27712h9.7494v5.7474h-1.36e-4c-0.02048 2.6639-2.2019 4.8301-4.8743 4.8301-2.6724 0-4.8539-2.1662-4.8744-4.8301h-8.25e-4zm2.5958 0.676v2.309l2.1013 1.2425v-2.3201zm4.5622 0-2.1013 1.2315v2.3201l2.1013-1.2425zm-10.425 1.3769c0.47698-0.01187 0.94666 0.23052 1.2011 0.67135 0.25982 0.44999 0.22802 0.99046-0.035565 1.4009l0.37685-0.21763 1.4771-0.85283v0.60816l-1.1354 0.65617-0.07852 0.04473-0.37575 0.21722c0.48678-0.02234 0.97051 0.22058 1.23 0.66998 0.13905 0.2409 0.19463 0.50731 0.17591 0.76628-0.03071 0.43114-0.2673 0.84038-0.66779 1.0718-0.64145 0.37035-1.4666 0.14905-1.8369-0.49202-0.029415-0.05111-0.055538-0.10369-0.077836-0.15676-0.049501 0.03933-0.10237 0.07499-0.15881 0.10765-0.64075 0.3701-1.4662 0.1491-1.8362-0.49216-0.37043-0.64106-0.14924-1.4666 0.49202-1.8368 0.053843-0.03122 0.10885-0.05789 0.16483-0.0807 0-4.76e-4 -5.033e-4 -7.5e-4 -6.886e-4 -9.75e-4 1.868e-4 1.22e-4 3.968e-4 -2.37e-4 3.968e-4 1.37e-4 -0.00842-0.01308-0.017003-0.02588-0.025305-0.03884-2.52e-4 -1e-3 -0.00105-0.0023-0.0015-0.0031-2.333e-4 -3.97e-4 -8.25e-4 -7.5e-4 -0.00105-0.0013-0.00135-0.0026-0.00278-0.0051-0.00435-0.0077-9.3e-5 -3.7e-4 -4.5e-4 -8.25e-4 -5.557e-4 -1e-3 -0.0033-0.0055-0.00623-0.01103-0.00958-0.01628-0.37023-0.64152-0.1491-1.4667 0.49216-1.8371 0.20031-0.11568 0.41857-0.17366 0.63538-0.17906zm16.298 0c0.2168 0.0054 0.43506 0.06338 0.63538 0.17906 0.64126 0.37035 0.86236 1.1955 0.49216 1.8371-0.0034 0.0053-0.0063 0.01078-0.0096 0.01628-9.3e-5 2.91e-4 -4.76e-4 7.14e-4 -5.55e-4 0.0011-0.0016 0.0026-3e-3 0.0052-0.0044 0.0077-2.33e-4 4.76e-4 -8.25e-4 8.25e-4 -1e-3 0.0013-5.03e-4 9e-4 -0.0012 0.0021-0.0015 0.0032-0.0083 0.01296-0.01688 0.02576-0.0253 0.03884 0-3.7e-4 2.24e-4 -4.3e-5 4.24e-4 -1.36e-4 -1.87e-4 1.95e-4 -6.89e-4 5.02e-4 -6.89e-4 9.75e-4 0.05598 0.02281 0.11099 0.04948 0.16483 0.0807 0.64127 0.37023 0.86244 1.1957 0.49202 1.8368-0.37004 0.64126-1.1955 0.86228-1.8362 0.49216-0.05644-0.03265-0.10931-0.06832-0.15881-0.10765-0.02229 0.05307-0.04842 0.10564-0.07784 0.15676-0.3703 0.64107-1.1954 0.86236-1.8369 0.49202-0.40049-0.23131-0.63708-0.64059-0.66779-1.0718-0.01872-0.25898 0.03685-0.52538 0.17591-0.76628 0.2595-0.4494 0.74319-0.69233 1.23-0.66998l-0.37575-0.21722-0.07852-0.04473-1.1508-0.66492v-0.60829l1.4926 0.86176 0.37685 0.21763c-0.26358-0.41034-0.29538-0.95086-0.03556-1.4009 0.25449-0.44082 0.72415-0.68323 1.2011-0.67135zm-12.268 0.25032v4.3762l3.9443 2.3199v-4.387zm8.2366 0-3.9441 2.3091v4.387l3.9441-2.3199zm-12.174 0.2696c-0.15899-0.01132-0.32283 0.02287-0.47068 0.1082-0.39407 0.22782-0.53006 0.73507-0.30258 1.1296 0.22749 0.39376 0.73498 0.52967 1.1293 0.30243 0.39433-0.22761 0.5302-0.73511 0.30271-1.1293-0.14222-0.24658-0.39378-0.39204-0.65877-0.41091zm16.112 0c-0.26499 0.01887-0.51668 0.16433-0.6589 0.41091-0.22749 0.3942-0.09162 0.90174 0.30271 1.1293 0.39432 0.22723 0.90196 0.09132 1.1294-0.30243 0.22749-0.39452 0.09137-0.90174-0.30271-1.1296-0.14785-0.08533-0.31155-0.11952-0.47055-0.1082zm-16.13 0.25894c0.1817 0.01297 0.3543 0.11283 0.45181 0.28178 0.15616 0.27018 0.062941 0.61828-0.2075 0.77446-0.27051 0.15603-0.6184 0.06274-0.77438-0.20765-0.15628-0.27032-0.063143-0.61819 0.20737-0.77423 0.10137-0.05866 0.21366-0.08219 0.32268-0.07442zm16.148 0c0.10902-0.0078 0.22131 0.01576 0.32268 0.07442 0.27051 0.15603 0.36378 0.50389 0.2075 0.77423-0.15596 0.27038-0.50384 0.36367-0.77438 0.20765-0.27045-0.15621-0.36379-0.50431-0.20764-0.77446 0.09752-0.16895 0.27011-0.26882 0.4518-0.28178zm-2.9595 1.1075 0.90796 0.52417c-0.30368 0.13089-0.56925 0.35678-0.74659 0.66397-0.0727 0.1259-0.1263 0.25765-0.16141 0.39203zm-10.244 0.0089v1.5171c-0.03461-0.11559-0.08304-0.22895-0.14595-0.33787-0.17734-0.30718-0.4429-0.53308-0.74658-0.66397zm-3.5399 0.61089c-0.15894-0.01134-0.32274 0.02289-0.47055 0.1082-0.39433 0.22755-0.53027 0.73526-0.30271 1.1296 0.22768 0.39401 0.73505 0.53012 1.1293 0.3023 0.3942-0.22768 0.53038-0.73505 0.30258-1.1293-0.14222-0.24633-0.39373-0.39186-0.65863-0.41077zm17.339 0c-0.2649 0.01891-0.51655 0.16443-0.65876 0.41077-0.22781 0.39427-0.09149 0.90166 0.30271 1.1293 0.39427 0.22782 0.90151 0.09171 1.1292-0.3023 0.22756-0.39433 0.09162-0.90204-0.30271-1.1296-0.1478-0.08531-0.31148-0.11954-0.47041-0.1082zm-17.357 0.25907c0.18164 0.01293 0.35408 0.11263 0.45167 0.28178 0.15596 0.27018 0.062948 0.61851-0.20737 0.77408-0.27051 0.15635-0.61841 0.06322-0.77476-0.20709-0.15589-0.27051-0.062528-0.61867 0.20792-0.77461 0.10133-0.05849 0.21356-0.0819 0.32254-0.07414zm17.375 0c0.10898-0.0078 0.22122 0.01565 0.32255 0.07414 0.27044 0.15596 0.36367 0.50411 0.20778 0.77461-0.15635 0.27032-0.50411 0.36344-0.77461 0.20709-0.27032-0.15557-0.36346-0.50389-0.2075-0.77408 0.09759-0.16915 0.27017-0.26885 0.45181-0.28178zm-2.0837 0.27317c-0.2649 0.01891-0.51655 0.1643-0.65877 0.41064-0.22781 0.39426-0.09149 0.90174 0.30271 1.1294 0.39427 0.22782 0.90151 0.09157 1.1292-0.30243 0.22754-0.39432 0.09162-0.90204-0.30271-1.1296-0.1478-0.08531-0.31147-0.11941-0.47041-0.10806zm-13.201 9e-3c-0.15896-0.01139-0.32272 0.02276-0.47055 0.10806-0.39427 0.22788-0.53013 0.73532-0.30258 1.1294 0.22755 0.39426 0.73492 0.53012 1.1293 0.30243 0.39394-0.22736 0.53006-0.73498 0.30258-1.1292-0.14219-0.24623-0.39384-0.39175-0.65877-0.41074zm13.219 0.24991c0.10898-0.0078 0.22122 0.01565 0.32254 0.07414 0.27044 0.15596 0.36367 0.50411 0.20778 0.77461-0.15635 0.27032-0.50411 0.36344-0.77461 0.20709-0.27033-0.15556-0.36346-0.50389-0.2075-0.77408 0.09759-0.16915 0.27017-0.26885 0.4518-0.28178zm-13.237 9e-3c0.18167 0.01297 0.35412 0.11281 0.45167 0.28192 0.15609 0.27018 0.06294 0.61827-0.2075 0.77438-0.27051 0.15596-0.6184 0.06282-0.77446-0.2075-0.15615-0.27032-0.062941-0.6182 0.2075-0.77446 0.10142-0.05851 0.21382-0.08206 0.32282-0.07427zm6.7068 6.7782c-0.23883 0-0.45796 0.05471-0.6574 0.16428-0.1982 0.10833-0.35141 0.26783-0.45974 0.47834-0.1071 0.20928-0.16073 0.45482-0.16073 0.73673 0 0.25853 0.04747 0.5005 0.14226 0.72579 0.09602 0.22529 0.23514 0.39764 0.41734 0.51706 0.18343 0.11819 0.42103 0.17727 0.7128 0.17727 0.28192 0 0.52006-0.07701 0.71458-0.2309 0.19574-0.15512 0.33116-0.37972 0.40626-0.67395l-0.35825-0.09056c-0.04925 0.22775-0.14336 0.39956-0.28247 0.51528-0.13911 0.11572-0.309 0.17358-0.50967 0.17358-0.16496 0-0.3183-0.04254-0.45988-0.12749-0.14157-0.08495-0.24622-0.21298-0.31392-0.3841-0.06648-0.17235-0.09972-0.37356-0.09972-0.60378 0-0.17851 0.02831-0.35154 0.08495-0.51897 0.05663-0.16866 0.15457-0.30285 0.29368-0.40257 0.14034-0.09972 0.31447-0.14951 0.52253-0.14951 0.18097 0 0.33116 0.04487 0.45058 0.13473 0.11942 0.08987 0.21051 0.23336 0.2733 0.43033l0.35277-0.08317c-0.07263-0.24991-0.20135-0.44374-0.38601-0.58162-0.18466-0.13788-0.41242-0.20682-0.68325-0.20682zm-6.428 0.0461v2.7072h0.35824v-1.1005h0.69434c0.38286 0 0.64755-0.07934 0.79403-0.23814 0.1465-0.16004 0.21968-0.35524 0.21968-0.58545 0-0.13419-0.02763-0.2573-0.08303-0.36933-0.05417-0.11203-0.12626-0.19875-0.21612-0.26031-0.08987-0.06278-0.20121-0.10532-0.33417-0.12749-0.09479-0.01724-0.23213-0.02585-0.41187-0.02585zm2.528 0v1.5641c0 0.28684 0.03447 0.51337 0.10341 0.67956 0.06894 0.16496 0.18411 0.29109 0.34539 0.37849 0.16127 0.08741 0.36864 0.13118 0.62224 0.13118 0.26099 0 0.47151-0.04993 0.63154-0.14964 0.16128-0.10095 0.27276-0.23144 0.33431-0.39148 0.06155-0.16004 0.09233-0.37603 0.09233-0.6481v-1.5641h-0.35824v1.5623c0 0.33978-0.05609 0.56944-0.16812 0.68886-0.11203 0.11942-0.2997 0.17906-0.56315 0.17906-0.15389 0-0.28438-0.03009-0.39148-0.09042-0.10587-0.06032-0.18097-0.14595-0.22529-0.25675-0.04309-0.11203-0.0647-0.28561-0.0647-0.52075v-1.5623zm5.4568 0v2.7072h0.35825v-1.1005h0.69433c0.38286 0 0.64755-0.07934 0.79403-0.23814 0.1465-0.16004 0.21968-0.35524 0.21968-0.58545 0-0.13419-0.02763-0.2573-0.08303-0.36933-0.05417-0.11203-0.12626-0.19875-0.21612-0.26031-0.08987-0.06278-0.20121-0.10532-0.33417-0.12749-0.09479-0.01724-0.23213-0.02585-0.41187-0.02585zm2.528 0v2.7072h0.35825v-1.2021h0.41556c0.09233 0 0.15881 0.0043 0.19943 0.01286 0.0554 0.01355 0.10957 0.03762 0.1625 0.07209 0.05417 0.03447 0.11504 0.09479 0.18275 0.18097 0.06771 0.08618 0.15389 0.21051 0.25853 0.37302l0.35825 0.56315h0.45058l-0.47082-0.73668c-0.09356-0.14404-0.19274-0.26414-0.29738-0.36016-0.04924-0.04432-0.12119-0.08918-0.21599-0.13473 0.25976-0.0357 0.4518-0.11942 0.57615-0.25114 0.12434-0.13172 0.18644-0.29368 0.18644-0.48573 0-0.14896-0.03748-0.28493-0.11258-0.40804-0.0751-0.12311-0.1755-0.20874-0.30107-0.25675-0.12557-0.04925-0.309-0.07387-0.5503-0.07387zm0.35825 0.29916h0.85681c0.20066 0 0.34716 0.04131 0.4395 0.1238 0.09356 0.08249 0.14034 0.18768 0.14034 0.31571 0 0.08741-0.02394 0.16866-0.07195 0.24375-0.04802 0.07387-0.11819 0.12803-0.21051 0.1625-0.09233 0.03324-0.22037 0.04993-0.3841 0.04993h-0.77011zm-10.513 0.02038h0.69242c0.1625 0 0.27399 0.0079 0.33431 0.02394 0.09356 0.02585 0.16866 0.07947 0.22529 0.16073 0.05786 0.08002 0.08672 0.17659 0.08672 0.28985 0 0.15635-0.04856 0.27768-0.14582 0.36385-0.09725 0.08618-0.26168 0.12926-0.49312 0.12926h-0.6998zm7.9846 0h0.69242c0.1625 0 0.27398 0.0079 0.33431 0.02394 0.09356 0.02585 0.16866 0.07947 0.22529 0.16073 0.05786 0.08002 0.08672 0.17659 0.08672 0.28985 0 0.15635-0.04856 0.27768-0.14582 0.36385-0.09725 0.08618-0.26168 0.12926-0.49312 0.12926h-0.6998z" stroke-width=".001"/>
</svg>
