<?xml version="1.0" encoding="UTF-8"?>
<svg id="sinqia-logo__svg" width="440" height="182" version="1.1" viewBox="0 0 116.42 48.154" xml:space="preserve" xmlns="http://www.w3.org/2000/svg">
	<style>
		@import url('../root.css');

		:root {
			--logo-background-color: #ff5500;
			--logo-fill-color: #f8f8f8;
		}

		#sinqia-logo__svg {
			background-color: var(--primary-color);
			fill: var(--secondary-color);
			transition:
				background-color 0.5s,
				fill 0.5s
			;
		}

		#sinqia-logo__svg:hover {
			background-color: var(--logo-background-color);
			fill: var(--logo-fill-color);
		}
	</style>
	<path id="sinqia-logo__path" d="m25.926 13.884c-1.7382 0-3.3134 0.43349-4.455 1.2495-1.358 0.97778-2.1182 2.3956-2.1182 4.1894 0 1.8526 0.76006 3.2119 2.2273 4.1382 1.1952 0.81604 2.7705 1.1916 4.2912 1.5214 2.9879 0.70577 4.7811 1.3028 4.7811 3.3161 0 3.9174-4.1831 4.2468-5.4865 4.2468-1.7382 0-3.5856-0.49117-4.8343-1.2547-0.38124-0.27202-0.86954-0.16267-1.1405 0.21962h-0.05478c-0.10922 0.21951-0.16363 0.43337-0.10904 0.70538 0.05461 0.22055 0.16347 0.43493 0.37982 0.54415 1.5754 0.92632 3.6405 1.4702 5.7588 1.4702 1.9009 0 3.6936-0.49262 4.9434-1.3601 1.5208-1.0355 2.3358-2.6094 2.3358-4.5713 0-3.5351-3.2603-4.3513-6.0844-5.0571-3.2589-0.76458-5.2152-1.4127-5.2152-3.9186 0-1.087 0.48912-3.6969 4.7258-3.6969 1.5218 0 3.0428 0.32342 4.238 0.97772 0.05356 0.05147 0.21633 0.11026 0.32556 0.16175 0.38018 0.27202 0.9231 0.11026 1.1405-0.32349 0.27202-0.38229 0.1094-0.87365-0.27078-1.1457l-0.05478-0.05271c-1.4672-0.81604-3.4228-1.3596-5.3237-1.3596zm27.54 0c-4.1831 0-7.551 3.4259-7.551 7.5639v11.856c0 0.49256 0.38243 0.87385 0.86765 0.87385 0.49257 0 0.87385-0.38128 0.87385-0.87385v-11.856c0-3.2117 2.6041-5.7702 5.8095-5.7702 3.1539 0 5.7578 2.5585 5.7578 5.7702v11.856c0 0.49256 0.38242 0.87385 0.86868 0.87385 0.49152 0 0.92501-0.38128 0.92501-0.87385v-11.856c0-4.138-3.4198-7.5639-7.5515-7.5639zm20.642 0c-4.1264 0-7.5458 3.4259-7.5458 7.5639v5.2183c0 4.1894 3.4194 7.5639 7.5458 7.5639 4.1831 0 7.5515-3.3745 7.5515-7.5639v-5.2183c0-4.138-3.3683-7.5639-7.5515-7.5639zm29.882 0c-2.1761 0-4.5657 0.5962-6.412 1.5792-0.0577 0.05248-0.10923 0.1049-0.16174 0.1049-0.43375 0.27201-0.60172 0.87418-0.3297 1.3079 0.27202 0.43375 0.8163 0.54383 1.25 0.27182 0.16174-0.05255 0.27162-0.11029 0.38189-0.16175 1.1973-0.60179 3.2582-1.2506 5.2715-1.2506 1.9555 0 5.2131 0.54401 5.2131 4.5139 0 0.16174 3.4e-4 0.32446-0.0574 0.49144-0.37598 1.2508-2.2802 1.6845-5.1558 2.1182-3.5876 0.54403-8.0429 1.2498-8.0429 5.7113 0 3.5939 2.5511 5.6596 7.0073 5.6596 2.5521 0 4.7798-1.0365 6.1914-2.8303l0.11007-0.21291v2.1172c0 0.49256 0.434 0.87385 0.92656 0.87385 0.48522 0 0.86713-0.38128 0.86713-0.87385v-13.106c0-4.0277-2.5519-6.3138-7.0595-6.3138zm-95.907 0.03721v2.7161h2.7161v-2.7161zm30.609 0.66921c-0.48942 0-0.86816 0.43401-0.86816 0.92552v17.788c0 0.49256 0.37874 0.87385 0.86816 0.87385 0.48941 0 0.92346-0.38128 0.92346-0.87385v-17.788c0-0.49152-0.43404-0.92552-0.92346-0.92552zm50.033 0c-0.4915 0-0.87385 0.43401-0.87385 0.92552v17.788c0 0.49256 0.38234 0.87385 0.87385 0.87385 0.48627 0 0.91984-0.38128 0.91984-0.87385v-17.788c0-0.49152-0.43357-0.92552-0.91984-0.92552zm-14.617 1.0873c3.2054 0 5.8151 2.5585 5.8151 5.7702v5.2183c0 3.2116-2.6098 5.8219-5.8151 5.8219-3.1486 0-5.7583-2.6102-5.7583-5.8219v-5.2183c0-3.2117 2.6097-5.7702 5.7583-5.7702zm-68.816 1.0346v2.7161h2.7156v-2.7161zm5.5821 0v2.7161h2.7161v-2.7161zm-2.791 2.7916v2.7156h2.7161v-2.7156zm101.17 3.7889v1.9622c0 5.2775-3.3683 7.1815-6.1924 7.1815-4.3449 0-5.3237-2.1236-5.3237-3.8659 0-2.8294 2.7149-3.4258 6.6838-3.9698 1.7938-0.27202 3.53-0.54409 4.6705-1.1973l0.16174-0.11059zm-28.465 9.4154c-0.48627 0-0.91984 0.43401-0.91984 0.92552v8.2119c0 0.54402 0.43357 0.92501 0.91984 0.92501 0.49256 0 0.86868-0.38098 0.86868-0.92501v-8.2119c0-0.49152-0.37612-0.92552-0.86868-0.92552z" fill-rule="evenodd" image-rendering="auto" stroke-opacity="0" style="paint-order:markers fill stroke" onmouseover=""/>
</svg>
