<?xml version="1.0" encoding="UTF-8"?>
<svg id="stefanini-logo__svg" width="440" height="120" version="1.1" viewBox="0 0 116.42 31.75" xml:space="preserve" xmlns="http://www.w3.org/2000/svg">
	<path id="stefanini-logo__path" d="m16.808 21.006c-0.07054-0.12345-0.10582-0.28218-0.05291-0.42326v-0.03528c0.14109-0.56435 0.8818-1.2522 1.6931-1.6225l0.6878-1.4109-1.5696-0.31745c-1.6578 0.89943-3.0863 2.3279-3.3508 3.4919-0.31745 1.3756 1.0934 1.8518 3.1568 1.0758h0.01764c0.22927-0.08818 0.2469-0.08818 0.67017-0.28218l0.05291-0.01764c-0.61726 0-1.1287-0.14109-1.3051-0.45854zm-4.7617-0.70544c0.42326-1.8341 2.8747-4.1268 5.6082-5.3437l1.0758-1.7283-2.0987-0.54671c-3.3685 1.5167-6.3842 4.3737-6.9133 6.6311-0.26454 1.1463 0.14109 1.9576 1.0582 2.3279 0.17636 0.07054 0.42326 0.15872 0.61726 0.22927 0.58199 0.194 1.1816 0.31745 1.7812 0.40563l0.4409 0.03527c-1.1992-0.10581-1.8518-0.82889-1.5696-2.0105zm-1.2169-12.91-1.1463-0.21163c-2.1869 1.4991-3.8975 3.439-4.2855 5.0792-0.03527 0.14109-0.05291 0.26454-0.07054 0.40563-0.03527 0.31745-0.03527 0.72307-0.03527 1.0405 0.01764 0.52908 0.08818 1.0582 0.194 1.5872l0.08818 0.35272c-0.08818-0.42326-0.08818-0.86416 0.01764-1.2874 0.4409-1.8694 2.4161-4.1092 4.9381-5.8199zm7.2484 1.1992-1.9223-0.74071c-0.28218 0.08818-0.56435 0.17636-0.84653 0.29981-4.2503 1.6225-8.236 5.2379-8.8885 8.0596-0.17636 0.75835-0.10582 1.3756 0.194 1.8518l0.14109 0.21163c0.47617 0.72307 1.0405 1.3756 1.7107 1.94-0.49381-0.47617-0.6878-1.1992-0.47617-2.134 0.63489-2.7159 4.4795-6.1902 8.5711-7.7598l0.37036-0.14109zm-12.081 1.4285s0.37036-1.2345 2.2221-2.7865c0.75834-0.67017 1.6049-1.2169 2.5043-1.6578l0.17636-0.28218-0.42326 0.05291c-1.1287 0.51144-2.134 1.2522-2.9452 2.1692-0.65253 0.72307-1.164 1.5696-1.5343 2.5043zm7.6187 12.292c0.07054 0 0.14109 0.01764 0.21163 0.01764zm94.176-0.91707v-10.723h3.3332v10.723zm-13.492-7.3013c0-1.3403-0.03527-2.4514-0.08818-3.4214h2.8923l0.15873 1.4991h0.0705c0.72307-1.1111 1.9752-1.7636 3.3156-1.7283 2.1869 0 3.8446 1.4638 3.8446 4.6206v6.3313h-3.3508v-5.9433c0-1.3756-0.47617-2.3279-1.693-2.3279-0.91707 0-1.4638 0.6349-1.7107 1.2522-0.0882 0.26454-0.12346 0.54671-0.10582 0.82889v6.1902h-3.3332zm-6.6488 7.3013v-10.723h3.3332v10.723zm-13.492-7.3013c0-1.3403-0.03527-2.4514-0.08818-3.4214h2.8923l0.15872 1.4991h0.07054c0.72307-1.1111 1.9752-1.7636 3.3156-1.7283 2.1869 0 3.8446 1.4638 3.8446 4.6206v6.3313h-3.3508v-5.9433c0-1.3756-0.47617-2.3279-1.6931-2.3279-0.91707 0-1.4638 0.6349-1.7107 1.2522-0.08818 0.26454-0.12345 0.54671-0.10582 0.82889v6.1902h-3.3332zm-3.2979 4.7088c-0.01764 0.86416 0.03527 1.7283 0.17636 2.5925h-2.9981l-0.194-1.0758h-0.07054c-0.70544 0.84653-1.7989 1.3227-3.0687 1.3227-2.1692 0-3.4743-1.5872-3.4743-3.2979 0-2.7688 2.5043-4.1092 6.296-4.1092v-0.12345c0-0.59962-0.29981-1.4109-1.9576-1.4109-1.0405 0.01764-2.0634 0.29981-2.9628 0.81125l-0.61726-2.1516c1.2874-0.65253 2.7159-0.98761 4.1621-0.95234 3.5801 0 4.6912 2.0987 4.6912 4.6559zm-3.2274-2.4867c-1.7636 0-3.1216 0.42326-3.1216 1.6931 0 0.84652 0.56435 1.2874 1.3227 1.2874 0.77598 0 1.4638-0.49381 1.7283-1.2345 0.05291-0.194 0.07054-0.38799 0.07054-0.56435zm-13.421 5.0792v-8.2713h-1.4285v-2.4514h1.4285v-0.42326c0-1.2874 0.38799-2.7159 1.3403-3.5977 0.82889-0.72307 1.887-1.0934 2.9805-1.0758 0.59962 0 1.1816 0.07054 1.7636 0.21163l-0.12345 2.5572c-0.35272-0.10582-0.70544-0.15872-1.0758-0.15872-1.0934 0-1.552 0.84653-1.552 1.9047v0.54672h2.1516v2.4514h-2.134v8.2713h-3.3508zm-10.052-4.3032c0.08818 1.3756 1.4638 2.0458 3.0334 2.0458 1.0052 0.01764 2.0105-0.14109 2.9628-0.45853l0.42326 2.2574c-1.2345 0.47617-2.5572 0.70544-3.8799 0.67017-3.633 0-5.7317-2.0987-5.7317-5.4671 0-2.7159 1.6931-5.7317 5.4142-5.7317 3.4566 0 4.7793 2.6983 4.7793 5.3437 0 0.4409-0.03527 0.8818-0.10582 1.3227h-6.8957zm3.9328-2.275c0-0.81125-0.35272-2.1692-1.887-2.1692-1.4109 0-1.9752 1.2874-2.0634 2.1692zm-11.34-7.0544v2.8923h2.3985v2.4514h-2.3985v3.8799c0 1.2874 0.33508 1.887 1.3227 1.887 0.33508 0.01764 0.67017-0.01764 0.98761-0.08818l0.01764 2.5219c-0.70544 0.21163-1.4285 0.29981-2.1516 0.28218-1.0758 0-1.9752-0.37035-2.5219-0.91707-0.61726-0.63489-0.91707-1.6754-0.91707-3.1745v-4.3914h-1.4285v-2.4514h1.4285v-1.9929zm-13.915 10.74c0.8818 0.47617 1.8694 0.75835 2.8747 0.79362 1.0052 0 1.4285-0.33508 1.4285-0.8818 0-0.54671-0.33508-0.82889-1.552-1.2522-2.2398-0.74071-3.0863-1.9576-3.0687-3.2274 0-2.0281 1.7107-3.5272 4.3561-3.5272 1.0405-0.01764 2.0634 0.21163 2.9981 0.63489l-0.56435 2.3103c-0.72307-0.37036-1.5167-0.58199-2.3279-0.61726-0.81125 0-1.2874 0.33508-1.2874 0.84652s0.42326 0.79362 1.7283 1.2522c2.0458 0.70544 2.8747 1.7636 2.8923 3.3156 0 2.0105-1.552 3.4919-4.6206 3.4919-1.1992 0.01764-2.3809-0.2469-3.4566-0.77598z" stroke-width=".17636"/>
</svg>
