<?xml version="1.0" encoding="UTF-8" standalone="no"?>
<svg
	width="40"
	height="60"
	viewBox="0 0 40 60"
	fill="none"
	version="1.1"
	id="svg364"
	sodipodi:docname="pvdk_stamp.svg"
	inkscape:version="1.2.1 (9c6d41e410, 2022-07-14)"
	xmlns:inkscape="http://www.inkscape.org/namespaces/inkscape"
	xmlns:sodipodi="http://sodipodi.sourceforge.net/DTD/sodipodi-0.dtd"
	xmlns="http://www.w3.org/2000/svg"
	xmlns:svg="http://www.w3.org/2000/svg">

	<link xmlns="http://www.w3.org/1999/xhtml" rel="stylesheet" href="style.css" type="text/css" />

	<defs
		id="defs368">

		<inkscape:path-effect
			effect="powermask"
			id="path-effect1973"
			is_visible="true"
			lpeversion="1"
			uri="#mask-powermask-path-effect1973"
			invert="false"
			hide_mask="false"
			background="true"
			background_color="#ffffffff" />
		<filter
			id="mask-powermask-path-effect1402_inverse"
			inkscape:label="filtermask-powermask-path-effect1402"
			style="color-interpolation-filters:sRGB"
			height="100"
			width="100"
			x="-50"
			y="-50">
			<feColorMatrix
				id="mask-powermask-path-effect1402_primitive1"
				values="1"
				type="saturate"
				result="fbSourceGraphic" />
			<feColorMatrix
				id="mask-powermask-path-effect1402_primitive2"
				values="-1 0 0 0 1 0 -1 0 0 1 0 0 -1 0 1 0 0 0 1 0 "
				in="fbSourceGraphic" />
		</filter>
		<filter
			id="mask-powermask-path-effect1417_inverse"
			inkscape:label="filtermask-powermask-path-effect1417"
			style="color-interpolation-filters:sRGB"
			height="100"
			width="100"
			x="-50"
			y="-50">
			<feColorMatrix
				id="mask-powermask-path-effect1417_primitive1"
				values="1"
				type="saturate"
				result="fbSourceGraphic" />
			<feColorMatrix
				id="mask-powermask-path-effect1417_primitive2"
				values="-1 0 0 0 1 0 -1 0 0 1 0 0 -1 0 1 0 0 0 1 0 "
				in="fbSourceGraphic" />
		</filter>
		<filter
			id="mask-powermask-path-effect1826_inverse"
			inkscape:label="filtermask-powermask-path-effect1826"
			style="color-interpolation-filters:sRGB"
			height="100"
			width="100"
			x="-50"
			y="-50">
			<feColorMatrix
				id="mask-powermask-path-effect1826_primitive1"
				values="1"
				type="saturate"
				result="fbSourceGraphic" />
			<feColorMatrix
				id="mask-powermask-path-effect1826_primitive2"
				values="-1 0 0 0 1 0 -1 0 0 1 0 0 -1 0 1 0 0 0 1 0 "
				in="fbSourceGraphic" />
		</filter>
		<mask
			maskUnits="userSpaceOnUse"
			id="mask-powermask-path-effect1973">
			<path
				id="mask-powermask-path-effect1973_box"
				style="fill:#ffffff;fill-opacity:1"
				d="M -1,-1 H 41 V 61 H -1 Z" />
			<path
				id="path1971"
				style="display:inline;fill:var(--secondary-color)"
				inkscape:label="stamp-frame-mask"
				d="M 4,4 H 36 V 36 H 4 Z M 20,47.5 A 0.5,0.5 0 0 1 19.5,48 0.5,0.5 0 0 1 19,47.5 0.5,0.5 0 0 1 19.5,47 0.5,0.5 0 0 1 20,47.5 Z m 2,6 A 0.5,0.5 0 0 1 21.5,54 0.5,0.5 0 0 1 21,53.5 0.5,0.5 0 0 1 21.5,53 0.5,0.5 0 0 1 22,53.5 Z m -2,2 A 0.5,0.5 0 0 1 19.5,56 0.5,0.5 0 0 1 19,55.5 0.5,0.5 0 0 1 19.5,55 0.5,0.5 0 0 1 20,55.5 Z m 6,-2 A 0.5,0.5 0 0 1 25.5,54 0.5,0.5 0 0 1 25,53.5 0.5,0.5 0 0 1 25.5,53 0.5,0.5 0 0 1 26,53.5 Z m 8,0 A 0.5,0.5 0 0 1 33.5,54 0.5,0.5 0 0 1 33,53.5 0.5,0.5 0 0 1 33.5,53 0.5,0.5 0 0 1 34,53.5 Z m 2,2 A 0.5,0.5 0 0 1 35.5,56 0.5,0.5 0 0 1 35,55.5 0.5,0.5 0 0 1 35.5,55 0.5,0.5 0 0 1 36,55.5 Z m -6,-2 A 0.5,0.5 0 0 1 29.5,54 0.5,0.5 0 0 1 29,53.5 0.5,0.5 0 0 1 29.5,53 0.5,0.5 0 0 1 30,53.5 Z m -6,2 A 0.5,0.5 0 0 1 23.5,56 0.5,0.5 0 0 1 23,55.5 0.5,0.5 0 0 1 23.5,55 0.5,0.5 0 0 1 24,55.5 Z m 4,0 A 0.5,0.5 0 0 1 27.5,56 0.5,0.5 0 0 1 27,55.5 0.5,0.5 0 0 1 27.5,55 0.5,0.5 0 0 1 28,55.5 Z m 4,0 A 0.5,0.5 0 0 1 31.5,56 0.5,0.5 0 0 1 31,55.5 0.5,0.5 0 0 1 31.5,55 0.5,0.5 0 0 1 32,55.5 Z m -10,-6 A 0.5,0.5 0 0 1 21.5,50 0.5,0.5 0 0 1 21,49.5 0.5,0.5 0 0 1 21.5,49 0.5,0.5 0 0 1 22,49.5 Z m -2,-6 A 0.5,0.5 0 0 1 19.5,44 0.5,0.5 0 0 1 19,43.5 0.5,0.5 0 0 1 19.5,43 0.5,0.5 0 0 1 20,43.5 Z m 0,8 A 0.5,0.5 0 0 1 19.5,52 0.5,0.5 0 0 1 19,51.5 0.5,0.5 0 0 1 19.5,51 0.5,0.5 0 0 1 20,51.5 Z m 0,-12 A 0.5,0.5 0 0 1 19.5,40 0.5,0.5 0 0 1 19,39.5 0.5,0.5 0 0 1 19.5,39 0.5,0.5 0 0 1 20,39.5 Z m 2,6 A 0.5,0.5 0 0 1 21.5,46 0.5,0.5 0 0 1 21,45.5 0.5,0.5 0 0 1 21.5,45 0.5,0.5 0 0 1 22,45.5 Z m 0,-4 A 0.5,0.5 0 0 1 21.5,42 0.5,0.5 0 0 1 21,41.5 0.5,0.5 0 0 1 21.5,41 0.5,0.5 0 0 1 22,41.5 Z m 2,6 A 0.5,0.5 0 0 1 23.5,48 0.5,0.5 0 0 1 23,47.5 0.5,0.5 0 0 1 23.5,47 0.5,0.5 0 0 1 24,47.5 Z m 2,2 A 0.5,0.5 0 0 1 25.5,50 0.5,0.5 0 0 1 25,49.5 0.5,0.5 0 0 1 25.5,49 0.5,0.5 0 0 1 26,49.5 Z m 2,-2 A 0.5,0.5 0 0 1 27.5,48 0.5,0.5 0 0 1 27,47.5 0.5,0.5 0 0 1 27.5,47 0.5,0.5 0 0 1 28,47.5 Z m 6,2 A 0.5,0.5 0 0 1 33.5,50 0.5,0.5 0 0 1 33,49.5 0.5,0.5 0 0 1 33.5,49 0.5,0.5 0 0 1 34,49.5 Z m 2,-2 A 0.5,0.5 0 0 1 35.5,48 0.5,0.5 0 0 1 35,47.5 0.5,0.5 0 0 1 35.5,47 0.5,0.5 0 0 1 36,47.5 Z m 0,4 A 0.5,0.5 0 0 1 35.5,52 0.5,0.5 0 0 1 35,51.5 0.5,0.5 0 0 1 35.5,51 0.5,0.5 0 0 1 36,51.5 Z m -2,-6 A 0.5,0.5 0 0 1 33.5,46 0.5,0.5 0 0 1 33,45.5 0.5,0.5 0 0 1 33.5,45 0.5,0.5 0 0 1 34,45.5 Z m 2,-2 A 0.5,0.5 0 0 1 35.5,44 0.5,0.5 0 0 1 35,43.5 0.5,0.5 0 0 1 35.5,43 0.5,0.5 0 0 1 36,43.5 Z m -2,-2 A 0.5,0.5 0 0 1 33.5,42 0.5,0.5 0 0 1 33,41.5 0.5,0.5 0 0 1 33.5,41 0.5,0.5 0 0 1 34,41.5 Z m 2,-2 A 0.5,0.5 0 0 1 35.5,40 0.5,0.5 0 0 1 35,39.5 0.5,0.5 0 0 1 35.5,39 0.5,0.5 0 0 1 36,39.5 Z m -6,10 A 0.5,0.5 0 0 1 29.5,50 0.5,0.5 0 0 1 29,49.5 0.5,0.5 0 0 1 29.5,49 0.5,0.5 0 0 1 30,49.5 Z m 2,-2 A 0.5,0.5 0 0 1 31.5,48 0.5,0.5 0 0 1 31,47.5 0.5,0.5 0 0 1 31.5,47 0.5,0.5 0 0 1 32,47.5 Z m -8,-4 A 0.5,0.5 0 0 1 23.5,44 0.5,0.5 0 0 1 23,43.5 0.5,0.5 0 0 1 23.5,43 0.5,0.5 0 0 1 24,43.5 Z m 0,8 A 0.5,0.5 0 0 1 23.5,52 0.5,0.5 0 0 1 23,51.5 0.5,0.5 0 0 1 23.5,51 0.5,0.5 0 0 1 24,51.5 Z m 4,0 A 0.5,0.5 0 0 1 27.5,52 0.5,0.5 0 0 1 27,51.5 0.5,0.5 0 0 1 27.5,51 0.5,0.5 0 0 1 28,51.5 Z m 4,0 A 0.5,0.5 0 0 1 31.5,52 0.5,0.5 0 0 1 31,51.5 0.5,0.5 0 0 1 31.5,51 0.5,0.5 0 0 1 32,51.5 Z m -8,-12 A 0.5,0.5 0 0 1 23.5,40 0.5,0.5 0 0 1 23,39.5 0.5,0.5 0 0 1 23.5,39 0.5,0.5 0 0 1 24,39.5 Z m 2,6 A 0.5,0.5 0 0 1 25.5,46 0.5,0.5 0 0 1 25,45.5 0.5,0.5 0 0 1 25.5,45 0.5,0.5 0 0 1 26,45.5 Z m 0,-4 A 0.5,0.5 0 0 1 25.5,42 0.5,0.5 0 0 1 25,41.5 0.5,0.5 0 0 1 25.5,41 0.5,0.5 0 0 1 26,41.5 Z m 2,2 A 0.5,0.5 0 0 1 27.5,44 0.5,0.5 0 0 1 27,43.5 0.5,0.5 0 0 1 27.5,43 0.5,0.5 0 0 1 28,43.5 Z m 0,-4 A 0.5,0.5 0 0 1 27.5,40 0.5,0.5 0 0 1 27,39.5 0.5,0.5 0 0 1 27.5,39 0.5,0.5 0 0 1 28,39.5 Z m 2,6 A 0.5,0.5 0 0 1 29.5,46 0.5,0.5 0 0 1 29,45.5 0.5,0.5 0 0 1 29.5,45 0.5,0.5 0 0 1 30,45.5 Z m 2,-2 A 0.5,0.5 0 0 1 31.5,44 0.5,0.5 0 0 1 31,43.5 0.5,0.5 0 0 1 31.5,43 0.5,0.5 0 0 1 32,43.5 Z m -2,-2 A 0.5,0.5 0 0 1 29.5,42 0.5,0.5 0 0 1 29,41.5 0.5,0.5 0 0 1 29.5,41 0.5,0.5 0 0 1 30,41.5 Z m 2,-2 A 0.5,0.5 0 0 1 31.5,40 0.5,0.5 0 0 1 31,39.5 0.5,0.5 0 0 1 31.5,39 0.5,0.5 0 0 1 32,39.5 Z" />
		</mask>
		<filter
			id="mask-powermask-path-effect1973_inverse"
			inkscape:label="filtermask-powermask-path-effect1973"
			style="color-interpolation-filters:sRGB"
			height="100"
			width="100"
			x="-50"
			y="-50">
			<feColorMatrix
				id="mask-powermask-path-effect1973_primitive1"
				values="1"
				type="saturate"
				result="fbSourceGraphic" />
			<feColorMatrix
				id="mask-powermask-path-effect1973_primitive2"
				values="-1 0 0 0 1 0 -1 0 0 1 0 0 -1 0 1 0 0 0 1 0 "
				in="fbSourceGraphic" />
		</filter>
	</defs>
	<sodipodi:namedview
		id="namedview366"
		pagecolor="#ffffff"
		bordercolor="#666666"
		borderopacity="1.0"
		inkscape:showpageshadow="2"
		inkscape:pageopacity="0.0"
		inkscape:pagecheckerboard="0"
		inkscape:deskcolor="#d1d1d1"
		showgrid="false"
		inkscape:zoom="13.433333"
		inkscape:cx="38.933002"
		inkscape:cy="28.883375"
		inkscape:window-width="1920"
		inkscape:window-height="1009"
		inkscape:window-x="-8"
		inkscape:window-y="892"
		inkscape:window-maximized="1"
		inkscape:current-layer="svg364" />
	<g
		id="stamp"
		inkscape:label="stamp">
		<path
			fill-rule="evenodd"
			clip-rule="evenodd"
			d="M 40,0 H 0 v 54 l 6.9282,6 H 40 Z"
			fill="var(--primary-color)"
			id="stamp-frame"
			style="display:inline"
			inkscape:label="stamp-frame"
			mask="url(#mask-powermask-path-effect1973)"
			inkscape:path-effect="#path-effect1973"
			inkscape:original-d="M 40,0 H 0 v 54 l 6.9282,6 H 40 Z" />
		<g
			id="display"
			inkscape:label="display"
			style="display:inline">
			<rect
				x="4"
				y="4"
				width="32"
				height="32"
				fill="var(--secondary-color)"
				id="display-frame"
				inkscape:label="display-frame"
				style="display:inline" />
			<g
				aria-label="&gt; PV
  DK"
				id="text-pvdk"
				style="font-size:14px;line-height:1.25;font-family:'Microsoft Sans Serif';-inkscape-font-specification:'Microsoft Sans Serif';letter-spacing:0px;display:inline;fill:var(--primary-color)"
				inkscape:label="text-pvdk">
				<path
					d="m 5.9463067,8.4183521 0.7382813,-0.758789 4.59375,3.8349609 -4.59375,3.834961 -0.7382813,-0.751953 3.7255859,-3.069336 z"
					style="font-family:Consolas;-inkscape-font-specification:Consolas"
					id="path4130" />
				<path
					d="m 26.85744,9.0199146 q 0,0.546875 -0.205079,1.0869144 -0.205078,0.533203 -0.635742,0.957031 -0.430664,0.423828 -1.100586,0.69043 -0.669922,0.259765 -1.599609,0.259765 H 22.209002 V 15.22011 H 20.992205 V 6.2855396 h 2.515625 q 0.663086,0 1.271485,0.1503907 0.608398,0.1435546 1.066406,0.4716796 0.464844,0.328125 0.738281,0.8476563 0.273438,0.5195312 0.273438,1.2646484 z m -1.264649,0.054687 q 0,-0.8613281 -0.567383,-1.3193359 -0.560547,-0.4580078 -1.572265,-0.4580078 h -1.244141 v 3.6777346 h 1.134766 q 1.080078,0 1.661132,-0.47168 0.587891,-0.47168 0.587891,-1.4287109 z"
					style="font-family:Consolas;-inkscape-font-specification:Consolas"
					id="path4132" />
				<path
					d="M 35.279315,6.2855396 32.244158,15.22011 H 30.603533 L 27.636736,6.2855396 h 1.374024 l 1.927734,6.0224614 0.546875,1.763671 0.560547,-1.763671 1.93457,-6.0224614 z"
					style="font-family:Consolas;-inkscape-font-specification:Consolas"
					id="path4134" />
				<path
					d="m 27.110369,28.616805 q 0,0.642578 -0.102539,1.230468 -0.0957,0.587891 -0.314453,1.09375 -0.21875,0.50586 -0.567383,0.922852 -0.348633,0.410156 -0.854492,0.704102 -0.505859,0.293945 -1.175781,0.458007 -0.669922,0.157227 -1.524414,0.157227 h -1.914063 v -8.93457 h 2.303711 q 2.091797,0 3.117188,1.080078 1.032226,1.073242 1.032226,3.288086 z m -1.27832,0.08887 q 0,-0.950195 -0.177734,-1.606445 -0.177735,-0.65625 -0.54004,-1.059571 -0.362304,-0.40332 -0.909179,-0.581054 -0.546875,-0.184571 -1.285156,-0.184571 h -1.045899 v 6.856446 h 0.90918 q 3.048828,0 3.048828,-3.424805 z"
					style="font-family:Consolas;-inkscape-font-specification:Consolas"
					id="path4136" />
				<path
					d="m 34.766619,33.183211 h -1.53125 l -3.342773,-4.381836 v 4.381836 h -1.216797 v -8.93457 h 1.216797 v 4.149414 l 3.274414,-4.149414 h 1.442383 l -3.527344,4.245117 z"
					style="font-family:Consolas;-inkscape-font-specification:Consolas"
					id="path4138" />
			</g>
		</g>
		<g
			id="circles"
			style="display:inline"
			inkscape:label="circles">
			<circle
				cx="31.5"
				cy="39.5"
				r="0.5"
				fill="var(--secondary-color)"
				id="circle1836" />
			<circle
				cx="29.5"
				cy="41.5"
				r="0.5"
				fill="var(--secondary-color)"
				id="circle1838" />
			<circle
				cx="31.5"
				cy="43.5"
				r="0.5"
				fill="var(--secondary-color)"
				id="circle1840" />
			<circle
				cx="29.5"
				cy="45.5"
				r="0.5"
				fill="var(--secondary-color)"
				id="circle1842" />
			<circle
				cx="27.5"
				cy="39.5"
				r="0.5"
				fill="var(--secondary-color)"
				id="circle1844" />
			<circle
				cx="27.5"
				cy="43.5"
				r="0.5"
				fill="var(--secondary-color)"
				id="circle1846" />
			<circle
				cx="25.5"
				cy="41.5"
				r="0.5"
				fill="var(--secondary-color)"
				id="circle1848" />
			<circle
				cx="25.5"
				cy="45.5"
				r="0.5"
				fill="var(--secondary-color)"
				id="circle1850" />
			<circle
				cx="23.5"
				cy="39.5"
				r="0.5"
				fill="var(--secondary-color)"
				id="circle1852" />
			<circle
				cx="31.5"
				cy="51.5"
				r="0.5"
				fill="var(--secondary-color)"
				id="circle1854" />
			<circle
				cx="27.5"
				cy="51.5"
				r="0.5"
				fill="var(--secondary-color)"
				id="circle1856" />
			<circle
				cx="23.5"
				cy="51.5"
				r="0.5"
				fill="var(--secondary-color)"
				id="circle1858" />
			<circle
				cx="23.5"
				cy="43.5"
				r="0.5"
				fill="var(--secondary-color)"
				id="circle1860" />
			<circle
				cx="31.5"
				cy="47.5"
				r="0.5"
				fill="var(--secondary-color)"
				id="circle1862" />
			<circle
				cx="29.5"
				cy="49.5"
				r="0.5"
				fill="var(--secondary-color)"
				id="circle1864" />
			<circle
				cx="35.5"
				cy="39.5"
				r="0.5"
				fill="var(--secondary-color)"
				id="circle1866" />
			<circle
				cx="33.5"
				cy="41.5"
				r="0.5"
				fill="var(--secondary-color)"
				id="circle1868" />
			<circle
				cx="35.5"
				cy="43.5"
				r="0.5"
				fill="var(--secondary-color)"
				id="circle1870" />
			<circle
				cx="33.5"
				cy="45.5"
				r="0.5"
				fill="var(--secondary-color)"
				id="circle1872" />
			<circle
				cx="35.5"
				cy="51.5"
				r="0.5"
				fill="var(--secondary-color)"
				id="circle1874" />
			<circle
				cx="35.5"
				cy="47.5"
				r="0.5"
				fill="var(--secondary-color)"
				id="circle1876" />
			<circle
				cx="33.5"
				cy="49.5"
				r="0.5"
				fill="var(--secondary-color)"
				id="circle1878" />
			<circle
				cx="27.5"
				cy="47.5"
				r="0.5"
				fill="var(--secondary-color)"
				id="circle1880" />
			<circle
				cx="25.5"
				cy="49.5"
				r="0.5"
				fill="var(--secondary-color)"
				id="circle1882" />
			<circle
				cx="23.5"
				cy="47.5"
				r="0.5"
				fill="var(--secondary-color)"
				id="circle1884" />
			<circle
				cx="21.5"
				cy="41.5"
				r="0.5"
				fill="var(--secondary-color)"
				id="circle1886" />
			<circle
				cx="21.5"
				cy="45.5"
				r="0.5"
				fill="var(--secondary-color)"
				id="circle1888" />
			<circle
				cx="19.5"
				cy="39.5"
				r="0.5"
				fill="var(--secondary-color)"
				id="circle1890" />
			<circle
				cx="19.5"
				cy="51.5"
				r="0.5"
				fill="var(--secondary-color)"
				id="circle1892" />
			<circle
				cx="19.5"
				cy="43.5"
				r="0.5"
				fill="var(--secondary-color)"
				id="circle1894" />
			<circle
				cx="21.5"
				cy="49.5"
				r="0.5"
				fill="var(--secondary-color)"
				id="circle1896" />
			<circle
				cx="31.5"
				cy="55.5"
				r="0.5"
				fill="var(--secondary-color)"
				id="circle1898" />
			<circle
				cx="27.5"
				cy="55.5"
				r="0.5"
				fill="var(--secondary-color)"
				id="circle1900" />
			<circle
				cx="23.5"
				cy="55.5"
				r="0.5"
				fill="var(--secondary-color)"
				id="circle1902" />
			<circle
				cx="29.5"
				cy="53.5"
				r="0.5"
				fill="var(--secondary-color)"
				id="circle1904" />
			<circle
				cx="35.5"
				cy="55.5"
				r="0.5"
				fill="var(--secondary-color)"
				id="circle1906" />
			<circle
				cx="33.5"
				cy="53.5"
				r="0.5"
				fill="var(--secondary-color)"
				id="circle1908" />
			<circle
				cx="25.5"
				cy="53.5"
				r="0.5"
				fill="var(--secondary-color)"
				id="circle1910" />
			<circle
				cx="19.5"
				cy="55.5"
				r="0.5"
				fill="var(--secondary-color)"
				id="circle1912" />
			<circle
				cx="21.5"
				cy="53.5"
				r="0.5"
				fill="var(--secondary-color)"
				id="circle1914" />
			<circle
				cx="19.5"
				cy="47.5"
				r="0.5"
				fill="var(--secondary-color)"
				id="circle1916" />
		</g>
	</g>
</svg>